<svg id="Layer_1" data-name="Layer 1" xmlns="http://www.w3.org/2000/svg" viewBox="0 0 257.88 39.23"><defs><style>.cls-1{fill:#fff;}.cls-2{fill:#fff;}</style></defs><title>perfect_incentive</title><path class="cls-1" d="M30.86,22.85c0.08,3,2.54,5,5.63,5a10.45,10.45,0,0,0,5.2-1.4l1.23,3.26a12.83,12.83,0,0,1-7.28,2.2c-7,0-9.94-5.08-9.94-10.45C25.7,15.78,29.08,11,34.8,11c5.42,0,9,4.1,9,10.32v1.48H30.86Zm3.81-8a4.14,4.14,0,0,0-3.93,4.4h7.78C38.43,17.09,37.25,14.85,34.67,14.85Z" transform="translate(-5.51 -2.2)"/><path class="cls-1" d="M57.55,16.2a4.61,4.61,0,0,0-2.33-.64,5.72,5.72,0,0,0-3.89,1.78V31.52H46.26v-20h4.27l0.59,2.11c2-1.82,3.6-2.58,5.46-2.58a5.11,5.11,0,0,1,2.88.85Z" transform="translate(-5.51 -2.2)"/><path class="cls-1" d="M77.39,22.85c0.08,3,2.54,5,5.63,5a10.45,10.45,0,0,0,5.2-1.4l1.23,3.26a12.82,12.82,0,0,1-7.28,2.2c-7,0-9.94-5.08-9.94-10.45,0-5.71,3.38-10.45,9.1-10.45,5.41,0,9,4.1,9,10.32v1.48H77.39Zm3.81-8a4.14,4.14,0,0,0-3.93,4.4H85C85,17.09,83.78,14.85,81.2,14.85Z" transform="translate(-5.51 -2.2)"/><path class="cls-1" d="M101.8,31.94c-6.52,0-9.86-4.7-9.86-10.32A10.17,10.17,0,0,1,102.31,11a10.66,10.66,0,0,1,5.71,1.4l-0.08,4.15a7.91,7.91,0,0,0-5-1.65c-3.43,0-5.88,2.71-5.88,6.43,0,3.43,1.86,6.47,5.84,6.47a9,9,0,0,0,4.74-1.4l1.27,3.34A13.31,13.31,0,0,1,101.8,31.94Z" transform="translate(-5.51 -2.2)"/><path class="cls-1" d="M74.11,12.15H68.57l0.34-1.82a7.24,7.24,0,0,1,3.77-5.13,14.67,14.67,0,0,1,5.4-1.6,9.7,9.7,0,0,0-5.16-1.4c-3,0-7.33,1.52-8.52,7.74L64,12.15H60.35L59.8,16.08h3.71C61.91,26.36,60.9,33,55.06,38.59c0,0,7,.22,9.8-8.36a88.5,88.5,0,0,0,3-14.15h3.72A11.41,11.41,0,0,1,74.11,12.15Z" transform="translate(-5.51 -2.2)"/><path class="cls-2" d="M128.2,7.47a2.14,2.14,0,1,1,2.14-2.14A2.15,2.15,0,0,1,128.2,7.47Zm-1.51,24V11.63h3.07V31.51h-3.07Z" transform="translate(-5.51 -2.2)"/><path class="cls-2" d="M147.2,31.51V19.28c0-2.48-.42-5.25-3.45-5.25-2.44,0-4.67,1.72-6.18,3V31.51H134.5V11.63H137l0.42,2.4c2.19-1.68,4.33-2.9,7.1-2.9s5.72,2.06,5.72,7V31.51H147.2Z" transform="translate(-5.51 -2.2)"/><path class="cls-2" d="M162.67,31.93c-6.1,0-9.25-4.75-9.25-10.13s3.19-10.68,9.84-10.68a10.8,10.8,0,0,1,5,1.26v2.9a9.54,9.54,0,0,0-5.17-1.47c-4.16,0-6.6,3.32-6.6,7.82S159,29.29,163,29.29a9,9,0,0,0,5-1.47L169,30A11.8,11.8,0,0,1,162.67,31.93Z" transform="translate(-5.51 -2.2)"/><path class="cls-2" d="M173.73,22.1c0,3.78,2.19,7.19,6.47,7.19A9.52,9.52,0,0,0,185,27.81L186,30a12.08,12.08,0,0,1-6.18,1.93c-6.35,0-9.37-5.09-9.37-10.76s3.28-10,8.07-10c5.13,0,7.94,4.08,7.94,10.26V22.1H173.73Zm4.83-8.37c-2.94,0-4.79,2.61-4.79,5.76h9.37C183.14,16.72,181.59,13.73,178.56,13.73Z" transform="translate(-5.51 -2.2)"/><path class="cls-2" d="M202.27,31.51V19.28c0-2.48-.42-5.25-3.45-5.25-2.44,0-4.67,1.72-6.18,3V31.51h-3.07V11.63h2.52l0.42,2.4c2.19-1.68,4.33-2.9,7.1-2.9s5.72,2.06,5.72,7V31.51h-3.07Z" transform="translate(-5.51 -2.2)"/><path class="cls-2" d="M215.22,31.93c-2.9,0-4.29-1.68-4.29-4.25V14.15h-3.24V11.63h3.24V7.26L214,6.21v5.42h6.1L219,14.15h-5V27c0,1.64.63,2.31,2,2.31a6.93,6.93,0,0,0,3.4-1.05l0.92,2.19A9.84,9.84,0,0,1,215.22,31.93Z" transform="translate(-5.51 -2.2)"/><path class="cls-2" d="M224.76,7.47a2.14,2.14,0,1,1,2.14-2.14A2.15,2.15,0,0,1,224.76,7.47Zm-1.51,24V11.63h3.07V31.51h-3.07Z" transform="translate(-5.51 -2.2)"/><path class="cls-2" d="M238.72,31.64H236.2l-7.61-20h3.24l5.68,15.85h0.08l6.18-15.85h3.07Z" transform="translate(-5.51 -2.2)"/><path class="cls-2" d="M250.65,22.1c0,3.78,2.19,7.19,6.47,7.19A9.52,9.52,0,0,0,262,27.81l1,2.19a12.07,12.07,0,0,1-6.18,1.93c-6.35,0-9.37-5.09-9.37-10.76s3.28-10,8.07-10c5.13,0,7.95,4.08,7.95,10.26V22.1H250.65Zm4.83-8.37c-2.94,0-4.79,2.61-4.79,5.76h9.37C260.07,16.72,258.51,13.73,255.49,13.73Z" transform="translate(-5.51 -2.2)"/><path class="cls-1" d="M13.5,31.93a9.6,9.6,0,0,1-2.94-.46v10h-5V12.51a22.65,22.65,0,0,1,7.74-1.35C20.31,11.16,24,15.07,24,21.25,24,27.6,19.55,31.93,13.5,31.93ZM12.86,15.33a8.86,8.86,0,0,0-2.31.29V27.44a6.85,6.85,0,0,0,2.61.5c3.53,0,5.55-2.56,5.55-6.43C18.71,17.3,16.14,15.33,12.86,15.33Z" transform="translate(-5.51 -2.2)"/><path class="cls-1" d="M119.23,27.83c-1.31,0-1.9-.72-1.9-2.28V15.31H121a17.63,17.63,0,0,1,1-3.81h-4.7V5.37l-5.08,1.52V11.5h-3.55v3.81h3.55V27.24c0,2.71,1.4,4.7,5.29,4.7A12.47,12.47,0,0,0,124,30.2l-1.35-3.3A8.41,8.41,0,0,1,119.23,27.83Z" transform="translate(-5.51 -2.2)"/></svg>