<svg id="Layer_1" data-name="Layer 1" xmlns="http://www.w3.org/2000/svg" viewBox="0 0 257.88 39.23"><defs><style>.cls-1{fill:#747374;}.cls-2{fill:#e2185d;}</style></defs><title>perfect_incentive_color</title><path class="cls-1" d="M27.53,24.51c0.08,3,2.54,5,5.63,5a10.45,10.45,0,0,0,5.2-1.4l1.23,3.26a12.83,12.83,0,0,1-7.28,2.2c-7,0-9.94-5.08-9.94-10.45,0-5.71,3.38-10.45,9.1-10.45,5.42,0,9,4.1,9,10.32v1.48H27.53Zm3.81-8a4.14,4.14,0,0,0-3.93,4.4h7.78C35.1,18.76,33.92,16.52,31.33,16.52Z" transform="translate(-2.17 -3.87)"/><path class="cls-1" d="M54.22,17.87a4.61,4.61,0,0,0-2.33-.64A5.72,5.72,0,0,0,48,19V33.19H42.92v-20H47.2l0.59,2.11c2-1.82,3.6-2.58,5.46-2.58a5.11,5.11,0,0,1,2.88.85Z" transform="translate(-2.17 -3.87)"/><path class="cls-1" d="M74.05,24.51c0.08,3,2.54,5,5.63,5a10.45,10.45,0,0,0,5.2-1.4l1.23,3.26a12.82,12.82,0,0,1-7.28,2.2c-7,0-9.94-5.08-9.94-10.45,0-5.71,3.38-10.45,9.1-10.45,5.41,0,9,4.1,9,10.32v1.48H74.05Zm3.81-8a4.14,4.14,0,0,0-3.93,4.4h7.78C81.63,18.76,80.44,16.52,77.86,16.52Z" transform="translate(-2.17 -3.87)"/><path class="cls-1" d="M98.46,33.61c-6.52,0-9.86-4.7-9.86-10.32A10.17,10.17,0,0,1,99,12.71a10.66,10.66,0,0,1,5.71,1.4l-0.08,4.15a7.91,7.91,0,0,0-5-1.65c-3.43,0-5.88,2.71-5.88,6.43,0,3.43,1.86,6.47,5.84,6.47a9,9,0,0,0,4.74-1.4l1.27,3.34A13.31,13.31,0,0,1,98.46,33.61Z" transform="translate(-2.17 -3.87)"/><path class="cls-1" d="M70.77,13.81H65.24L65.58,12a7.24,7.24,0,0,1,3.77-5.13,14.67,14.67,0,0,1,5.4-1.6,9.7,9.7,0,0,0-5.16-1.4c-3,0-7.33,1.52-8.52,7.74l-0.42,2.2H57l-0.55,3.93h3.71C58.57,28,57.57,34.67,51.73,40.26c0,0,7,.22,9.8-8.36a88.5,88.5,0,0,0,3-14.15h3.72A11.41,11.41,0,0,1,70.77,13.81Z" transform="translate(-2.17 -3.87)"/><path class="cls-2" d="M124.86,9.13A2.14,2.14,0,1,1,127,7,2.15,2.15,0,0,1,124.86,9.13Zm-1.51,24V13.3h3.07V33.18h-3.07Z" transform="translate(-2.17 -3.87)"/><path class="cls-2" d="M143.86,33.18V20.95c0-2.48-.42-5.25-3.45-5.25-2.44,0-4.67,1.72-6.18,3V33.18h-3.07V13.3h2.52l0.42,2.4c2.19-1.68,4.33-2.9,7.1-2.9s5.72,2.06,5.72,7V33.18h-3.07Z" transform="translate(-2.17 -3.87)"/><path class="cls-2" d="M159.33,33.6c-6.1,0-9.25-4.75-9.25-10.13s3.19-10.68,9.84-10.68a10.8,10.8,0,0,1,5,1.26V17a9.54,9.54,0,0,0-5.17-1.47c-4.16,0-6.6,3.32-6.6,7.82S155.64,31,159.71,31a9,9,0,0,0,5-1.47l1,2.19A11.8,11.8,0,0,1,159.33,33.6Z" transform="translate(-2.17 -3.87)"/><path class="cls-2" d="M170.39,23.76c0,3.78,2.19,7.19,6.47,7.19a9.52,9.52,0,0,0,4.83-1.47l1,2.19a12.08,12.08,0,0,1-6.18,1.93c-6.35,0-9.37-5.09-9.37-10.76s3.28-10,8.07-10c5.13,0,7.94,4.08,7.94,10.26v0.71H170.39Zm4.83-8.37c-2.94,0-4.79,2.61-4.79,5.76h9.37C179.81,18.38,178.25,15.4,175.23,15.4Z" transform="translate(-2.17 -3.87)"/><path class="cls-2" d="M198.94,33.18V20.95c0-2.48-.42-5.25-3.45-5.25-2.44,0-4.67,1.72-6.18,3V33.18h-3.07V13.3h2.52l0.42,2.4c2.19-1.68,4.33-2.9,7.1-2.9s5.72,2.06,5.72,7V33.18h-3.07Z" transform="translate(-2.17 -3.87)"/><path class="cls-2" d="M211.88,33.6c-2.9,0-4.29-1.68-4.29-4.25V15.82h-3.24V13.3h3.24V8.92l3.07-1.05V13.3h6.1l-1.09,2.52h-5V28.64c0,1.64.63,2.31,2,2.31a6.93,6.93,0,0,0,3.4-1.05L217,32.09A9.84,9.84,0,0,1,211.88,33.6Z" transform="translate(-2.17 -3.87)"/><path class="cls-2" d="M221.43,9.13A2.14,2.14,0,1,1,223.57,7,2.15,2.15,0,0,1,221.43,9.13Zm-1.51,24V13.3H223V33.18h-3.07Z" transform="translate(-2.17 -3.87)"/><path class="cls-2" d="M235.38,33.31h-2.52l-7.61-20h3.24l5.68,15.85h0.08l6.18-15.85h3.07Z" transform="translate(-2.17 -3.87)"/><path class="cls-2" d="M247.32,23.76c0,3.78,2.19,7.19,6.47,7.19a9.52,9.52,0,0,0,4.83-1.47l1,2.19a12.07,12.07,0,0,1-6.18,1.93c-6.35,0-9.37-5.09-9.37-10.76s3.28-10,8.07-10c5.13,0,7.95,4.08,7.95,10.26v0.71H247.32Zm4.83-8.37c-2.94,0-4.79,2.61-4.79,5.76h9.37C256.74,18.38,255.18,15.4,252.15,15.4Z" transform="translate(-2.17 -3.87)"/><path class="cls-1" d="M10.16,33.6a9.6,9.6,0,0,1-2.94-.46v10h-5V14.18a22.65,22.65,0,0,1,7.74-1.35c7.06,0,10.72,3.91,10.72,10.09C20.63,29.27,16.22,33.6,10.16,33.6ZM9.53,17a8.86,8.86,0,0,0-2.31.29V29.1a6.85,6.85,0,0,0,2.61.5c3.53,0,5.55-2.56,5.55-6.43C15.38,19,12.81,17,9.53,17Z" transform="translate(-2.17 -3.87)"/><path class="cls-1" d="M115.89,29.5c-1.31,0-1.9-.72-1.9-2.28V17h3.69a17.63,17.63,0,0,1,1-3.81H114V7l-5.08,1.52v4.61h-3.55V17h3.55V28.91c0,2.71,1.4,4.7,5.29,4.7a12.47,12.47,0,0,0,6.43-1.73l-1.35-3.3A8.41,8.41,0,0,1,115.89,29.5Z" transform="translate(-2.17 -3.87)"/></svg>